<svg xmlns="http://www.w3.org/2000/svg" viewBox="0 0 320 320">
    <path fill="#164477"
          d="M 15.5,1.5 C 111.5,1.5 207.5,1.5 303.5,1.5C 296.222,96.5541 288.222,191.554 279.5,286.5C 239.666,297.459 199.666,307.792 159.5,317.5C 119.342,307.794 79.3418,297.46 39.5,286.5C 30.7778,191.556 22.7778,96.5564 15.5,1.5 Z"/>
    <path fill="#143f72"
          d="M 147.5,58.5 C 122.337,57.6678 97.0033,57.1678 71.5,57C 97.4056,56.1724 123.239,56.339 149,57.5C 149.667,122.167 149.667,186.833 149,251.5C 148.833,186.999 148.333,122.665 147.5,58.5 Z"/>
    <path fill="#1f5e91"
          d="M 171.5,58.5 C 201.329,57.5019 231.329,57.1686 261.5,57.5C 261.795,59.7354 261.461,61.7354 260.5,63.5C 260.5,61.8333 260.5,60.1667 260.5,58.5C 230.833,58.5 201.167,58.5 171.5,58.5 Z"/>
    <path fill="#3298cb"
          d="M 147.5,58.5 C 147.5,122.5 147.5,186.5 147.5,250.5C 118.156,244.828 88.8225,239.161 59.5,233.5C 58.7448,215.152 57.7448,196.818 56.5,178.5C 66.7918,179.754 77.1251,180.421 87.5,180.5C 87.5,189.833 87.5,199.167 87.5,208.5C 96.7985,209.792 106.132,210.792 115.5,211.5C 115.5,171.833 115.5,132.167 115.5,92.5C 101.817,92.6453 88.1505,92.312 74.5,91.5C 74.2754,80.4647 73.6087,69.4647 72.5,58.5C 97.5,58.5 122.5,58.5 147.5,58.5 Z"/>
    <path fill="#3298cb"
          d="M 171.5,58.5 C 201.167,58.5 230.833,58.5 260.5,58.5C 260.5,60.1667 260.5,61.8333 260.5,63.5C 259.338,73.4636 258.671,83.4636 258.5,93.5C 240.171,94.2665 221.837,94.9331 203.5,95.5C 203.333,106.505 203.5,117.505 204,128.5C 217.788,127.607 231.622,126.607 245.5,125.5C 248.385,125.194 251.052,125.527 253.5,126.5C 251.165,161.844 248.665,197.177 246,232.5C 221.165,238.417 196.331,244.417 171.5,250.5C 171.5,238.167 171.5,225.833 171.5,213.5C 185.855,211.259 200.188,208.926 214.5,206.5C 214.872,195.14 215.538,183.807 216.5,172.5C 217.482,169.038 217.815,165.371 217.5,161.5C 215.585,161.216 213.919,161.549 212.5,162.5C 198.827,163.778 185.16,165.112 171.5,166.5C 171.5,130.5 171.5,94.5 171.5,58.5 Z"/>
    <path fill="#2571a4"
          d="M 245.5,125.5 C 248.355,124.197 251.355,124.197 254.5,125.5C 254.376,126.107 254.043,126.44 253.5,126.5C 251.052,125.527 248.385,125.194 245.5,125.5 Z"/>
    <path fill="#2571a4"
          d="M 212.5,162.5 C 213.919,161.549 215.585,161.216 217.5,161.5C 217.815,165.371 217.482,169.038 216.5,172.5C 216.5,169.167 216.5,165.833 216.5,162.5C 215.167,162.5 213.833,162.5 212.5,162.5 Z"/>
</svg>
